<svg xmlns="http://www.w3.org/2000/svg" width="428" height="308" class="img-fluid" style="transform:matrix(1.01591,0,0,1.01591,0,0);transform-origin:50% 50%;cursor:move;max-height:382px" viewBox="0 0 4280 3080">
  <g stroke="#4c4b4bff" stroke-width="10" style="transform:none">
    <path d="M2200 2640v-410h-397l-398 1-80 102c-163 208-405 496-447 532-52 46-141 89-228 111-152 39-342-19-457-138-48-50-101-145-125-221-27-89-22-231 11-326 30-86 66-139 217-321 71-86 252-305 403-488 151-182 277-332 281-332s13 7 20 15 19 15 26 15c8 0 14 6 14 13 0 6-189 240-419 520-311 377-426 523-447 570-27 58-29 70-29 192 0 124 1 133 29 190 38 76 124 163 199 200 102 49 279 45 372-10 63-37 154-137 420-460 244-298 246-300 215-303-17-2-38 2-46 9-8 6-112 131-232 278-275 336-327 392-404 431-55 27-71 30-153 30s-98-3-153-31c-189-94-257-339-148-533 17-31 121-165 231-298 110-132 278-336 374-452 240-292 261-312 261-254 0 11 8 22 19 25 16 4 17 9 8 34-6 16-17 29-23 29-11 0-169 187-526 620-48 58-121 146-162 195-42 50-92 121-111 159-31 61-35 78-35 146 0 64 5 86 26 126 57 109 121 149 239 149 138 0 122 14 524-475 134-162 262-314 285-338 74-78 58-76 466-82 201-4 371-9 377-13 7-4 10-14 6-22-4-13-60-15-384-15-355 0-382 1-417 19-62 32-90 64-363 396-344 419-355 433-400 456-52 26-130 25-187-2-87-43-137-156-112-258 15-64 51-112 365-491 130-157 290-351 357-432l121-147 29 31c28 30 28 32 12 56-9 14-33 44-54 66-42 47-672 812-714 868-29 39-43 99-32 142 3 14 20 41 37 61 29 32 36 35 86 35 51 0 59-3 90-37 44-46 231-271 393-473 162-201 279-323 339-352 42-20 67-23 266-29 121-4 298-8 393-8l172-1-2-562-3-563-30-3c-38-4-54 13-305 318-262 320-263 320-321 320h-48l-7-45c-3-25-7-45-9-45-1 0-17 5-35 11-40 14-50 3-50-59v-43l-35 7c-31 5-35 3-40-19-11-44 16-82 290-412 294-353 345-392 523-403 129-7 232 29 324 116 66 61 95 113 107 192 7 41 13 505 18 1253l6 1187h48l-3-1237-3-1238-40-74c-50-94-112-156-206-206l-74-40h-300l-68 34c-37 19-84 48-104 65-29 24-321 369-508 599-34 43-40 46-48 30-5-10-18-25-29-33-18-15-10-27 178-255 340-414 377-449 529-504 73-26 100-31 179-31 124 0 186 13 276 57 100 48 213 160 260 256l34 69 7 276c4 153 8 368 8 480l1 202h570v-380h120c66 0 120-2 120-5 0-2-16-30-36-60-51-81-65-128-65-225 0-169 78-293 230-367 51-25 66-28 166-28 101 0 115 2 170 29 77 38 163 124 201 201 26 54 29 70 29 161 0 96-2 103-38 176-65 132-151 191-338 232l-27 6-6 157c-4 87-12 183-17 213-27 141-135 282-263 345-39 19-93 39-121 44-27 5-197 13-378 17l-327 7 6 558 7 559h-523v-410zm290-899V525l-29-51c-113-196-370-243-531-98-41 37-320 365-449 528-46 58-61 85-59 104 2 14 8 27 13 28 6 2 95-101 200-228 266-323 330-394 383-425 41-25 57-28 132-28 120 0 189 37 251 134l29 45v1111c0 612 3 1159 6 1217 7 103 7 105 30 100l24-4V1741zm-152 5c-3-1203-3-1215-23-1242-34-45-81-64-161-64-93 0-111 13-238 166-417 501-406 487-389 518 9 16 11 16 30-1 12-10 112-128 223-263 111-134 220-264 242-288 90-98 161-108 241-34l27 26v2396h51l-3-1214zm-138 369v-25l-347 2-348 3-3 23-3 22h701v-25zm-5-127c4-4 5-14 2-23-6-13-52-15-371-15h-365l-28 25-28 25 392-2c215-2 395-6 398-10zm1288-190c31-15 81-51 110-80 101-101 140-231 135-454-3-122-4-129-24-132s-21 3-31 184c-11 185-12 187-47 260-43 87-104 144-185 175-51 19-86 22-376 30-176 5-326 11-332 14-7 2-13 12-13 20 0 15 36 16 353 13l352-3 58-27zm-101-119c45-9 62-20 109-68 80-81 89-115 89-323v-168h-47l-8 173c-7 181-14 211-60 265-49 58-71 64-280 73-104 4-251 8-326 9h-137l-4 25-5 25h308c187 0 329-4 361-11zm1-156c48-51 57-89 57-248v-145h-24c-21 0-24 5-30 61-3 34-6 97-6 141 0 98-17 144-57 152-15 3-149 8-298 11-148 4-278 9-287 11-21 6-24 30-5 37 6 3 150 6 318 6l305 1 27-27zm562-541c172-89 206-300 71-438-58-60-96-74-199-74-85 0-120 15-180 76-63 64-80 113-75 206 6 115 53 187 153 235 42 20 61 23 120 20 45-2 84-11 110-25z"/>
    <path d="M508 2540c-38-29-42-53-20-102 21-47 791-983 800-973 12 12 31 79 24 89-5 10-284 348-600 730-74 89-136 167-139 174s0 25 8 38c27 51-26 82-73 44z"/>
  </g>
</svg>