<svg xmlns="http://www.w3.org/2000/svg"
  xmlns:v="https://svgstorm.com"
viewBox = "0 0 172 202" width="172" height="202">
  <g fill="None" fill-opacity="0.0" stroke="#000000" stroke-opacity="0.03" stroke-width="0.3">
    <path d="
M 0.00 202.00 
L 24.00 202.00
C 19.97 192.62 15.71 186.42 12.08 175.92 C 8.45 165.43 1.42 158.07 1.00 144.00 C 0.58 129.93 0.94 110.10 1.00 95.00 C 1.06 79.90 0.44 61.30 1.00 46.00 C 1.56 30.70 -1.81 13.46 4.00 0.00
L 0.00 0.00
L 0.00 202.00 Z"/>
  </g>
  <g fill="None" fill-opacity="0.0" stroke="#000000" stroke-opacity="0.96" stroke-width="0.3">
    <path d="
M 24.00 202.00 
L 89.00 202.00
C 128.14 194.24 165.56 159.16 172.00 117.00
L 172.00 86.00
C 165.23 41.33 123.79 3.15 80.00 0.00
L 4.00 0.00
C -1.81 13.46 1.56 30.70 1.00 46.00 C 0.44 61.30 1.06 79.90 1.00 95.00 C 0.94 110.10 0.58 129.93 1.00 144.00 C 1.42 158.07 8.45 165.43 12.08 175.92 C 15.71 186.42 19.97 192.62 24.00 202.00
M 42.00 6.00 
C 42.00 13.00 42.00 20.00 42.00 27.00
C 30.67 27.00 19.33 27.00 8.00 27.00
C 5.08 16.70 15.23 24.10 19.22 19.22 C 23.22 14.35 10.83 12.35 7.00 14.00
C 4.13 4.06 12.99 5.90 20.00 6.00 C 27.01 6.10 34.91 5.92 42.00 6.00
M 150.00 47.00 
C 151.79 49.51 152.86 52.26 154.00 55.00
C 154.32 55.77 154.89 55.76 155.00 57.00
C 155.47 57.74 156.49 58.07 157.00 59.00
C 185.41 111.02 149.74 185.47 91.00 194.00
C 91.96 190.55 94.55 186.59 92.00 183.00
C 92.46 183.40 89.57 181.83 90.00 182.00
C 88.60 181.44 87.32 181.13 86.00 182.00
C 82.58 176.27 87.72 165.64 76.00 168.00
C 105.59 152.17 128.34 123.85 122.22 89.78 C 116.10 55.71 83.91 34.05 48.00 39.00
C 48.00 28.00 48.00 17.00 48.00 6.00
C 88.80 2.42 125.58 13.08 150.00 47.00
M 42.00 33.00 
C 41.62 46.33 42.50 60.78 42.00 74.00 C 41.50 87.22 42.97 102.18 42.00 115.00 C 41.03 127.82 45.87 143.40 38.00 152.00
C 30.58 140.56 34.45 123.32 35.00 110.00
C 27.18 107.17 16.94 109.99 8.00 109.00
C 4.50 97.46 13.89 104.15 19.22 100.22 C 24.55 96.29 11.82 91.30 8.00 94.00
C 6.48 82.37 23.39 90.98 30.00 87.00
C 27.83 85.06 30.56 82.91 29.00 81.00
C 21.67 81.00 14.33 81.00 7.00 81.00
C 2.98 69.43 15.76 77.65 19.69 72.69 C 23.63 67.73 10.16 64.48 7.00 68.00
C 7.56 65.48 5.81 61.70 8.00 60.00
C 14.26 61.07 32.62 64.53 29.00 54.00
C 22.00 54.00 15.00 54.00 8.00 54.00
C 4.46 42.14 17.09 53.77 19.75 45.75 C 22.41 37.73 8.55 45.34 7.08 38.92 C 5.62 32.49 14.91 32.22 21.00 33.00 C 27.09 33.78 35.68 32.41 42.00 33.00
M 30.00 193.00 
C 38.40 171.28 49.75 156.84 48.00 130.00 C 46.25 103.16 49.41 72.01 48.00 45.00
C 76.27 39.69 105.32 56.29 114.77 81.23 C 124.22 106.17 113.35 134.71 92.11 149.11 C 70.86 163.51 51.71 179.53 30.00 193.00
M 29.00 114.00 
C 27.26 126.82 33.03 142.79 25.00 153.00
C 21.22 152.25 24.05 147.77 20.00 148.00
C 24.60 144.16 19.04 130.52 14.77 135.77 C 10.50 141.03 16.70 149.41 9.00 153.00
C 6.14 145.80 9.01 136.30 8.00 128.00
C 13.31 128.51 21.09 128.70 20.00 122.00
C 16.63 121.11 12.00 122.58 8.00 122.00
C 7.83 119.28 8.61 116.33 7.00 114.00
C 14.33 114.00 21.67 114.00 29.00 114.00
M 18.00 153.00 
C 19.01 159.36 28.94 161.05 30.00 154.00
C 34.53 152.41 34.80 157.68 38.00 159.00
C 36.15 165.30 31.33 171.88 31.00 178.00
C 26.86 175.14 22.36 177.72 18.00 177.00
C 16.78 171.67 14.23 163.23 11.00 160.00
C 12.41 157.45 15.12 154.49 18.00 153.00
M 79.00 174.00 
C 77.24 177.68 75.89 182.40 79.00 186.00
C 81.46 184.21 84.11 187.65 87.00 187.00
C 87.85 190.67 83.37 192.43 84.00 196.00
C 74.57 197.05 62.62 197.23 52.00 197.00
C 50.37 193.35 50.82 190.35 49.00 187.00
C 59.62 181.31 66.98 168.95 79.00 174.00 Z"/>
  </g>
  <g fill="None" fill-opacity="0.0" stroke="#000000" stroke-opacity="0.02" stroke-width="0.3">
    <path d="
M 172.00 86.00 
L 172.00 0.00
L 80.00 0.00
C 123.79 3.15 165.23 41.33 172.00 86.00 Z"/>
  </g>
  <g fill="None" fill-opacity="0.0" stroke="#000000" stroke-opacity="0.02" stroke-width="0.3">
    <path d="
M 42.00 6.00 
C 34.91 5.92 27.01 6.10 20.00 6.00 C 12.99 5.90 4.13 4.06 7.00 14.00
C 10.83 12.35 23.22 14.35 19.22 19.22 C 15.23 24.10 5.08 16.70 8.00 27.00
C 19.33 27.00 30.67 27.00 42.00 27.00
C 42.00 20.00 42.00 13.00 42.00 6.00 Z"/>
  </g>
  <g fill="None" fill-opacity="0.0" stroke="#000000" stroke-opacity="0.01" stroke-width="0.3">
    <path d="
M 90.00 182.00 
C 90.22 181.91 91.87 180.47 93.00 180.00
C 106.46 174.36 117.55 167.79 129.00 158.00
C 130.81 156.45 133.53 154.75 135.00 153.00
C 147.25 138.38 156.94 118.48 158.00 99.00
C 158.32 93.15 158.40 86.84 158.00 81.00
C 157.53 74.04 155.10 67.72 154.00 61.00
C 153.92 60.51 154.00 60.00 154.00 60.00
C 152.93 58.51 152.66 56.85 152.00 55.00
C 151.19 52.73 150.39 47.97 150.00 47.00
C 125.58 13.08 88.80 2.42 48.00 6.00
C 48.00 17.00 48.00 28.00 48.00 39.00
C 83.91 34.05 116.10 55.71 122.22 89.78 C 128.34 123.85 105.59 152.17 76.00 168.00
C 87.72 165.64 82.58 176.27 86.00 182.00
C 87.32 181.13 88.60 181.44 90.00 182.00 Z"/>
  </g>
  <g fill="None" fill-opacity="0.0" stroke="#000000" stroke-opacity="0.04" stroke-width="0.3">
    <path d="
M 42.00 33.00 
C 35.68 32.41 27.09 33.78 21.00 33.00 C 14.91 32.22 5.62 32.49 7.08 38.92 C 8.55 45.34 22.41 37.73 19.75 45.75 C 17.09 53.77 4.46 42.14 8.00 54.00
C 15.00 54.00 22.00 54.00 29.00 54.00
C 32.62 64.53 14.26 61.07 8.00 60.00
C 5.81 61.70 7.56 65.48 7.00 68.00
C 10.16 64.48 23.63 67.73 19.69 72.69 C 15.76 77.65 2.98 69.43 7.00 81.00
C 14.33 81.00 21.67 81.00 29.00 81.00
C 30.56 82.91 27.83 85.06 30.00 87.00
C 23.39 90.98 6.48 82.37 8.00 94.00
C 11.82 91.30 24.55 96.29 19.22 100.22 C 13.89 104.15 4.50 97.46 8.00 109.00
C 16.94 109.99 27.18 107.17 35.00 110.00
C 34.45 123.32 30.58 140.56 38.00 152.00
C 45.87 143.40 41.03 127.82 42.00 115.00 C 42.97 102.18 41.50 87.22 42.00 74.00 C 42.50 60.78 41.62 46.33 42.00 33.00 Z"/>
  </g>
  <g fill="None" fill-opacity="0.0" stroke="#000000" stroke-opacity="0.01" stroke-width="0.3">
    <path d="
M 30.00 193.00 
C 51.71 179.53 70.86 163.51 92.11 149.11 C 113.35 134.71 124.22 106.17 114.77 81.23 C 105.32 56.29 76.27 39.69 48.00 45.00
C 49.41 72.01 46.25 103.16 48.00 130.00 C 49.75 156.84 38.40 171.28 30.00 193.00 Z"/>
  </g>
  <g fill="None" fill-opacity="0.0" stroke="#2C2C2C" stroke-opacity="0.32" stroke-width="0.3">
    <path d="
M 152.00 55.00 
C 152.34 55.23 153.54 54.87 154.00 55.00
C 152.86 52.26 151.79 49.51 150.00 47.00
C 150.39 47.97 151.19 52.73 152.00 55.00 Z"/>
  </g>
  <g fill="None" fill-opacity="0.0" stroke="#616161" stroke-opacity="0.29" stroke-width="0.3">
    <path d="
M 154.00 60.00 
C 154.85 59.09 155.13 58.48 155.00 57.00
C 154.89 55.76 154.32 55.77 154.00 55.00
C 153.54 54.87 152.34 55.23 152.00 55.00
C 152.66 56.85 152.93 58.51 154.00 60.00 Z"/>
  </g>
  <g fill="None" fill-opacity="0.0" stroke="#888888" stroke-opacity="0.67" stroke-width="0.3">
    <path d="
M 154.00 60.00 
C 154.00 60.00 153.92 60.51 154.00 61.00
C 154.87 61.27 156.99 59.59 157.00 59.00
C 156.49 58.07 155.47 57.74 155.00 57.00
C 155.13 58.48 154.85 59.09 154.00 60.00 Z"/>
  </g>
  <g fill="None" fill-opacity="0.0" stroke="#B3B3B4" stroke-opacity="0.93" stroke-width="0.3">
    <path d="
M 154.00 61.00 
C 155.10 67.72 157.53 74.04 158.00 81.00
C 158.92 83.95 161.11 90.00 160.00 95.00 C 158.89 100.00 158.42 97.84 158.00 99.00
C 156.94 118.48 147.25 138.38 135.00 153.00
C 134.11 154.74 131.34 159.56 128.00 161.00
C 127.47 159.72 128.97 159.14 129.00 158.00
C 117.55 167.79 106.46 174.36 93.00 180.00
C 92.28 180.90 92.04 181.85 92.00 183.00
C 94.55 186.59 91.96 190.55 91.00 194.00
C 149.74 185.47 185.41 111.02 157.00 59.00
C 156.99 59.59 154.87 61.27 154.00 61.00 Z"/>
  </g>
  <g fill="None" fill-opacity="0.0" stroke="#A6A6A7" stroke-opacity="0.44" stroke-width="0.3">
    <path d="
M 158.00 99.00 
C 158.42 97.84 158.89 100.00 160.00 95.00 C 161.11 90.00 158.92 83.95 158.00 81.00
C 158.40 86.84 158.32 93.15 158.00 99.00 Z"/>
  </g>
  <g fill="None" fill-opacity="0.0" stroke="#000000" stroke-opacity="0.07" stroke-width="0.3">
    <path d="
M 29.00 114.00 
C 21.67 114.00 14.33 114.00 7.00 114.00
C 8.61 116.33 7.83 119.28 8.00 122.00
C 12.00 122.58 16.63 121.11 20.00 122.00
C 21.09 128.70 13.31 128.51 8.00 128.00
C 9.01 136.30 6.14 145.80 9.00 153.00
C 16.70 149.41 10.50 141.03 14.77 135.77 C 19.04 130.52 24.60 144.16 20.00 148.00
C 24.05 147.77 21.22 152.25 25.00 153.00
C 33.03 142.79 27.26 126.82 29.00 114.00 Z"/>
  </g>
  <g fill="None" fill-opacity="0.0" stroke="#000000" stroke-opacity="0.02" stroke-width="0.3">
    <path d="
M 89.00 202.00 
L 172.00 202.00
L 172.00 117.00
C 165.56 159.16 128.14 194.24 89.00 202.00 Z"/>
  </g>
  <g fill="None" fill-opacity="0.0" stroke="#000000" stroke-opacity="0.05" stroke-width="0.3">
    <path d="
M 18.00 153.00 
C 15.12 154.49 12.41 157.45 11.00 160.00
C 14.23 163.23 16.78 171.67 18.00 177.00
C 22.36 177.72 26.86 175.14 31.00 178.00
C 31.33 171.88 36.15 165.30 38.00 159.00
C 34.80 157.68 34.53 152.41 30.00 154.00
C 28.94 161.05 19.01 159.36 18.00 153.00 Z"/>
  </g>
  <g fill="None" fill-opacity="0.0" stroke="#A8A8A8" stroke-opacity="0.48" stroke-width="0.3">
    <path d="
M 129.00 158.00 
C 128.97 159.14 127.47 159.72 128.00 161.00
C 131.34 159.56 134.11 154.74 135.00 153.00
C 133.53 154.75 130.81 156.45 129.00 158.00 Z"/>
  </g>
  <g fill="None" fill-opacity="0.0" stroke="#000000" stroke-opacity="0.04" stroke-width="0.3">
    <path d="
M 79.00 174.00 
C 66.98 168.95 59.62 181.31 49.00 187.00
C 50.82 190.35 50.37 193.35 52.00 197.00
C 62.62 197.23 74.57 197.05 84.00 196.00
C 83.37 192.43 87.85 190.67 87.00 187.00
C 84.11 187.65 81.46 184.21 79.00 186.00
C 75.89 182.40 77.24 177.68 79.00 174.00 Z"/>
  </g>
  <g fill="None" fill-opacity="0.0" stroke="#666666" stroke-opacity="0.27" stroke-width="0.3">
    <path d="
M 90.00 182.00 
C 89.57 181.83 92.46 183.40 92.00 183.00
C 92.04 181.85 92.28 180.90 93.00 180.00
C 91.87 180.47 90.22 181.91 90.00 182.00 Z"/>
  </g>
  <g fill="#000000" fill-opacity="0.03" stroke="None">
    <path d="
M 0.00 202.00 
L 24.00 202.00
C 19.97 192.62 15.71 186.42 12.08 175.92 C 8.45 165.43 1.42 158.07 1.00 144.00 C 0.58 129.93 0.94 110.10 1.00 95.00 C 1.06 79.90 0.44 61.30 1.00 46.00 C 1.56 30.70 -1.81 13.46 4.00 0.00
L 0.00 0.00
L 0.00 202.00 Z"/>
  </g>
  <g fill="#000000" fill-opacity="0.96" stroke="None">
    <path d="
M 24.00 202.00 
L 89.00 202.00
C 128.14 194.24 165.56 159.16 172.00 117.00
L 172.00 86.00
C 165.23 41.33 123.79 3.15 80.00 0.00
L 4.00 0.00
C -1.81 13.46 1.56 30.70 1.00 46.00 C 0.44 61.30 1.06 79.90 1.00 95.00 C 0.94 110.10 0.58 129.93 1.00 144.00 C 1.42 158.07 8.45 165.43 12.08 175.92 C 15.71 186.42 19.97 192.62 24.00 202.00
M 42.00 6.00 
C 42.00 13.00 42.00 20.00 42.00 27.00
C 30.67 27.00 19.33 27.00 8.00 27.00
C 5.08 16.70 15.23 24.10 19.22 19.22 C 23.22 14.35 10.83 12.35 7.00 14.00
C 4.13 4.06 12.99 5.90 20.00 6.00 C 27.01 6.10 34.91 5.92 42.00 6.00
M 150.00 47.00 
C 151.79 49.51 152.86 52.26 154.00 55.00
C 154.32 55.77 154.89 55.76 155.00 57.00
C 155.47 57.74 156.49 58.07 157.00 59.00
C 185.41 111.02 149.74 185.47 91.00 194.00
C 91.96 190.55 94.55 186.59 92.00 183.00
C 92.46 183.40 89.57 181.83 90.00 182.00
C 88.60 181.44 87.32 181.13 86.00 182.00
C 82.58 176.27 87.72 165.64 76.00 168.00
C 105.59 152.17 128.34 123.85 122.22 89.78 C 116.10 55.71 83.91 34.05 48.00 39.00
C 48.00 28.00 48.00 17.00 48.00 6.00
C 88.80 2.42 125.58 13.08 150.00 47.00
M 42.00 33.00 
C 41.62 46.33 42.50 60.78 42.00 74.00 C 41.50 87.22 42.97 102.18 42.00 115.00 C 41.03 127.82 45.87 143.40 38.00 152.00
C 30.58 140.56 34.45 123.32 35.00 110.00
C 27.18 107.17 16.94 109.99 8.00 109.00
C 4.50 97.46 13.89 104.15 19.22 100.22 C 24.55 96.29 11.82 91.30 8.00 94.00
C 6.48 82.37 23.39 90.98 30.00 87.00
C 27.83 85.06 30.56 82.91 29.00 81.00
C 21.67 81.00 14.33 81.00 7.00 81.00
C 2.98 69.43 15.76 77.65 19.69 72.69 C 23.63 67.73 10.16 64.48 7.00 68.00
C 7.56 65.48 5.81 61.70 8.00 60.00
C 14.26 61.07 32.62 64.53 29.00 54.00
C 22.00 54.00 15.00 54.00 8.00 54.00
C 4.46 42.14 17.09 53.77 19.75 45.75 C 22.41 37.73 8.55 45.34 7.08 38.92 C 5.62 32.49 14.91 32.22 21.00 33.00 C 27.09 33.78 35.68 32.41 42.00 33.00
M 30.00 193.00 
C 38.40 171.28 49.75 156.84 48.00 130.00 C 46.25 103.16 49.41 72.01 48.00 45.00
C 76.27 39.69 105.32 56.29 114.77 81.23 C 124.22 106.17 113.35 134.71 92.11 149.11 C 70.86 163.51 51.71 179.53 30.00 193.00
M 29.00 114.00 
C 27.26 126.82 33.03 142.79 25.00 153.00
C 21.22 152.25 24.05 147.77 20.00 148.00
C 24.60 144.16 19.04 130.52 14.77 135.77 C 10.50 141.03 16.70 149.41 9.00 153.00
C 6.14 145.80 9.01 136.30 8.00 128.00
C 13.31 128.51 21.09 128.70 20.00 122.00
C 16.63 121.11 12.00 122.58 8.00 122.00
C 7.83 119.28 8.61 116.33 7.00 114.00
C 14.33 114.00 21.67 114.00 29.00 114.00
M 18.00 153.00 
C 19.01 159.36 28.94 161.05 30.00 154.00
C 34.53 152.41 34.80 157.68 38.00 159.00
C 36.15 165.30 31.33 171.88 31.00 178.00
C 26.86 175.14 22.36 177.72 18.00 177.00
C 16.78 171.67 14.23 163.23 11.00 160.00
C 12.41 157.45 15.12 154.49 18.00 153.00
M 79.00 174.00 
C 77.24 177.68 75.89 182.40 79.00 186.00
C 81.46 184.21 84.11 187.65 87.00 187.00
C 87.85 190.67 83.37 192.43 84.00 196.00
C 74.57 197.05 62.62 197.23 52.00 197.00
C 50.37 193.35 50.82 190.35 49.00 187.00
C 59.62 181.31 66.98 168.95 79.00 174.00 Z"/>
  </g>
  <g fill="#000000" fill-opacity="0.02" stroke="None">
    <path d="
M 172.00 86.00 
L 172.00 0.00
L 80.00 0.00
C 123.79 3.15 165.23 41.33 172.00 86.00 Z"/>
  </g>
  <g fill="#000000" fill-opacity="0.02" stroke="None">
    <path d="
M 42.00 6.00 
C 34.91 5.92 27.01 6.10 20.00 6.00 C 12.99 5.90 4.13 4.06 7.00 14.00
C 10.83 12.35 23.22 14.35 19.22 19.22 C 15.23 24.10 5.08 16.70 8.00 27.00
C 19.33 27.00 30.67 27.00 42.00 27.00
C 42.00 20.00 42.00 13.00 42.00 6.00 Z"/>
  </g>
  <g fill="#000000" fill-opacity="0.01" stroke="None">
    <path d="
M 90.00 182.00 
C 90.22 181.91 91.87 180.47 93.00 180.00
C 106.46 174.36 117.55 167.79 129.00 158.00
C 130.81 156.45 133.53 154.75 135.00 153.00
C 147.25 138.38 156.94 118.48 158.00 99.00
C 158.32 93.15 158.40 86.84 158.00 81.00
C 157.53 74.04 155.10 67.72 154.00 61.00
C 153.92 60.51 154.00 60.00 154.00 60.00
C 152.93 58.51 152.66 56.85 152.00 55.00
C 151.19 52.73 150.39 47.97 150.00 47.00
C 125.58 13.08 88.80 2.42 48.00 6.00
C 48.00 17.00 48.00 28.00 48.00 39.00
C 83.91 34.05 116.10 55.71 122.22 89.78 C 128.34 123.85 105.59 152.17 76.00 168.00
C 87.72 165.64 82.58 176.27 86.00 182.00
C 87.32 181.13 88.60 181.44 90.00 182.00 Z"/>
  </g>
  <g fill="#000000" fill-opacity="0.04" stroke="None">
    <path d="
M 42.00 33.00 
C 35.68 32.41 27.09 33.78 21.00 33.00 C 14.91 32.22 5.62 32.49 7.08 38.92 C 8.55 45.34 22.41 37.73 19.75 45.75 C 17.09 53.77 4.46 42.14 8.00 54.00
C 15.00 54.00 22.00 54.00 29.00 54.00
C 32.62 64.53 14.26 61.07 8.00 60.00
C 5.81 61.70 7.56 65.48 7.00 68.00
C 10.16 64.48 23.63 67.73 19.69 72.69 C 15.76 77.65 2.98 69.43 7.00 81.00
C 14.33 81.00 21.67 81.00 29.00 81.00
C 30.56 82.91 27.83 85.06 30.00 87.00
C 23.39 90.98 6.48 82.37 8.00 94.00
C 11.82 91.30 24.55 96.29 19.22 100.22 C 13.89 104.15 4.50 97.46 8.00 109.00
C 16.94 109.99 27.18 107.17 35.00 110.00
C 34.45 123.32 30.58 140.56 38.00 152.00
C 45.87 143.40 41.03 127.82 42.00 115.00 C 42.97 102.18 41.50 87.22 42.00 74.00 C 42.50 60.78 41.62 46.33 42.00 33.00 Z"/>
  </g>
  <g fill="#000000" fill-opacity="0.01" stroke="None">
    <path d="
M 30.00 193.00 
C 51.71 179.53 70.86 163.51 92.11 149.11 C 113.35 134.71 124.22 106.17 114.77 81.23 C 105.32 56.29 76.27 39.69 48.00 45.00
C 49.41 72.01 46.25 103.16 48.00 130.00 C 49.75 156.84 38.40 171.28 30.00 193.00 Z"/>
  </g>
  <g fill="#2C2C2C" fill-opacity="0.32" stroke="None">
    <path d="
M 152.00 55.00 
C 152.34 55.23 153.54 54.87 154.00 55.00
C 152.86 52.26 151.79 49.51 150.00 47.00
C 150.39 47.97 151.19 52.73 152.00 55.00 Z"/>
  </g>
  <g fill="#616161" fill-opacity="0.29" stroke="None">
    <path d="
M 154.00 60.00 
C 154.85 59.09 155.13 58.48 155.00 57.00
C 154.89 55.76 154.32 55.77 154.00 55.00
C 153.54 54.87 152.34 55.23 152.00 55.00
C 152.66 56.85 152.93 58.51 154.00 60.00 Z"/>
  </g>
  <g fill="#888888" fill-opacity="0.67" stroke="None">
    <path d="
M 154.00 60.00 
C 154.00 60.00 153.92 60.51 154.00 61.00
C 154.87 61.27 156.99 59.59 157.00 59.00
C 156.49 58.07 155.47 57.74 155.00 57.00
C 155.13 58.48 154.85 59.09 154.00 60.00 Z"/>
  </g>
  <g fill="#B3B3B4" fill-opacity="0.93" stroke="None">
    <path d="
M 154.00 61.00 
C 155.10 67.72 157.53 74.04 158.00 81.00
C 158.92 83.95 161.11 90.00 160.00 95.00 C 158.89 100.00 158.42 97.84 158.00 99.00
C 156.94 118.48 147.25 138.38 135.00 153.00
C 134.11 154.74 131.34 159.56 128.00 161.00
C 127.47 159.72 128.97 159.14 129.00 158.00
C 117.55 167.79 106.46 174.36 93.00 180.00
C 92.28 180.90 92.04 181.85 92.00 183.00
C 94.55 186.59 91.96 190.55 91.00 194.00
C 149.74 185.47 185.41 111.02 157.00 59.00
C 156.99 59.59 154.87 61.27 154.00 61.00 Z"/>
  </g>
  <g fill="#A6A6A7" fill-opacity="0.44" stroke="None">
    <path d="
M 158.00 99.00 
C 158.42 97.84 158.89 100.00 160.00 95.00 C 161.11 90.00 158.92 83.95 158.00 81.00
C 158.40 86.84 158.32 93.15 158.00 99.00 Z"/>
  </g>
  <g fill="#000000" fill-opacity="0.07" stroke="None">
    <path d="
M 29.00 114.00 
C 21.67 114.00 14.33 114.00 7.00 114.00
C 8.61 116.33 7.83 119.28 8.00 122.00
C 12.00 122.58 16.63 121.11 20.00 122.00
C 21.09 128.70 13.31 128.51 8.00 128.00
C 9.01 136.30 6.14 145.80 9.00 153.00
C 16.70 149.41 10.50 141.03 14.77 135.77 C 19.04 130.52 24.60 144.16 20.00 148.00
C 24.05 147.77 21.22 152.25 25.00 153.00
C 33.03 142.79 27.26 126.82 29.00 114.00 Z"/>
  </g>
  <g fill="#000000" fill-opacity="0.02" stroke="None">
    <path d="
M 89.00 202.00 
L 172.00 202.00
L 172.00 117.00
C 165.56 159.16 128.14 194.24 89.00 202.00 Z"/>
  </g>
  <g fill="#000000" fill-opacity="0.05" stroke="None">
    <path d="
M 18.00 153.00 
C 15.12 154.49 12.41 157.45 11.00 160.00
C 14.23 163.23 16.78 171.67 18.00 177.00
C 22.36 177.72 26.86 175.14 31.00 178.00
C 31.33 171.88 36.15 165.30 38.00 159.00
C 34.80 157.68 34.53 152.41 30.00 154.00
C 28.94 161.05 19.01 159.36 18.00 153.00 Z"/>
  </g>
  <g fill="#A8A8A8" fill-opacity="0.48" stroke="None">
    <path d="
M 129.00 158.00 
C 128.97 159.14 127.47 159.72 128.00 161.00
C 131.34 159.56 134.11 154.74 135.00 153.00
C 133.53 154.75 130.81 156.45 129.00 158.00 Z"/>
  </g>
  <g fill="#000000" fill-opacity="0.04" stroke="None">
    <path d="
M 79.00 174.00 
C 66.98 168.95 59.62 181.31 49.00 187.00
C 50.82 190.35 50.37 193.35 52.00 197.00
C 62.62 197.23 74.57 197.05 84.00 196.00
C 83.37 192.43 87.85 190.67 87.00 187.00
C 84.11 187.65 81.46 184.21 79.00 186.00
C 75.89 182.40 77.24 177.68 79.00 174.00 Z"/>
  </g>
  <g fill="#666666" fill-opacity="0.27" stroke="None">
    <path d="
M 90.00 182.00 
C 89.57 181.83 92.46 183.40 92.00 183.00
C 92.04 181.85 92.28 180.90 93.00 180.00
C 91.87 180.47 90.22 181.91 90.00 182.00 Z"/>
  </g>
</svg>