<svg xmlns="http://www.w3.org/2000/svg" width="4116" height="1100" viewBox="0 0 4116 1100">
  <path d="M379.628 1122.4c-178-40-300-146-367-319-17-47-17-233 1-280 34-88 76-157 125-204 45-43 125-90 176-105 25-7 58-17 74-22 90-28 245 8 351 81 49 34 73 56 113 108l25 33-24 22c-13 13-39 33-57 46l-34 24-43-50c-154-176-425-140-538 72-32 60-31 202 2 265 30 57 102 127 161 154 65 30 206 30 272-1 47-21 148-112 148-132 0-19 14-12 69 37l53 48-33 40c-128 149-311 220-474 183zm-8-92c2-3-9-8-24-11-39-10-108-52-156-95l-40-36 21 41c20 38 69 86 116 111 17 9 70 3 83-10zm131-25c3-9-2-13-14-10-9 1-19 9-22 16-3 9 2 13 14 10 9-1 19-9 22-16zm-408-349-1-58-20 38c-19 37-20 40-3 58 9 10 19 19 21 19 1 0 3-26 3-57zm97-261c54-53 123-91 183-99 53-7 51-20-3-28-37-6-54-2-104 24-87 43-176 154-159 197 7 16 9 15 21-13 8-18 36-55 62-81zm3061 709c-163-52-279-179-327-357s69-419 244-503c74-35 84-38 158-52 182-34 401 84 484 261 36 77 58 184 49 243-17 113-74 226-149 298-45 44-134 95-196 113-72 21-191 20-263-3zm52-136c-7-9-15-13-18-10-3 2 1 11 8 20s15 13 18 10c3-2-1-11-8-20zm267-187c162-161 168-171 138-228-17-32-29-37-42-17-11 18-58 37-96 38-23 1-26 3-9 6 28 6 28 7-5 43-20 23-29 27-36 18-6-9-7-8-3 5 4 12-14 38-62 88l-67 71-19-21c-19-21-19-21 12-21 25 0 32-4 32-20s-7-20-30-20c-43 0-99-25-126-58l-24-27 26-3c24-3 26-6 20-40-3-20-6-47-6-59 0-20-5-23-43-23h-43l4 43 3 42-29-31c-17-18-34-40-40-50-10-18-11-18-31 0-12 11-26 36-32 57-7 22-17 35-24 33-15-6-39 21-31 35 6 10 46 3 46-8 0-4 69 62 153 146 127 127 158 153 182 153s55-26 182-152zm-107-260c0-5-25-8-55-8s-55 5-55 10c0 6 18 10 39 10 22 0 43 5 47 11 6 11 23-6 24-23zm-2580 562c0-5 8-24 18-42s29-58 41-88c13-30 50-113 83-185 33-71 65-143 73-160 12-29 39-89 89-197 13-29 34-78 47-108 12-30 25-58 28-62 4-4 35 59 71 140 35 81 81 185 103 232 21 47 42 94 46 105 5 11 19 43 31 70 56 126 130 297 130 301 0 2-45 4-100 4h-100l-14-33c-29-70-29-76-2-83 14-3 26-11 26-16 0-6-25-41-55-77-108-133-162-128-293 23-23 27-42 52-42 56s11 11 25 14c29 7 31 21 9 76l-16 40h-99c-57 0-99-4-99-10zm651-43c-16-16-26 0-10 19 9 11 15 12 17 4 2-6-1-17-7-23zm-37-41c-6-16-24-23-24-8 0 10 22 33 27 28 2-2 1-11-3-20zm-267-398c28-26 28-33 2-88l-21-44-19 25c-33 42-39 81-15 106 26 28 25 28 53 1z"/>
  <path d="M1144.628 1083.4c0-6 10-31 22-57 19-41 22-44 29-24 12 32 41 27 37-6-2-21-8-28-23-26-18 1-18 0 4-18 27-22 56-24 90-5 23 13 23 13 2 19-14 3-21 13-21 30 0 47 32 40 42-8 3-15 11-5 31 38 15 32 27 60 27 62 0 3-54 5-120 5-74 0-120-4-120-10zm130-26c0-31-23-28-28 4-2 15 2 22 12 22 11 0 16-9 16-26zm417 29c-4-3-7-199-7-435v-428h550v120h-163c-113 0-167 4-175 12s-12 51-12 129c0 115 1 118 26 138 23 18 41 21 120 21 56 0 94 4 94 10s-43 10-108 10c-71 0-112 4-120 12-9 9-12 70-12 215v203h-93c-52 0-97-3-100-7zm121-65c7-7 12-25 12-41v-30l-30 38c-16 21-30 39-30 41 0 9 37 3 48-8zm1-274c-12-14-53-20-47-6 2 4 14 24 28 44l25 37 3-30c2-17-2-37-9-45zm-1-186c7-7 12-25 12-40v-28l-29 32c-16 18-27 36-25 40 8 12 28 10 42-4zm2-267c-11-22-40-29-40-11 0 6 10 25 23 41 20 28 22 29 25 11 2-12-2-30-8-41zm500 714c0-77 2-85 19-85s18-4 10-37c-5-21-9-57-9-80 0-39 2-43 24-43 13 0 26-5 28-10 2-6 27-13 56-17l52-6v32c0 24 4 31 20 31 23 0 27-15 5-24-11-4-15-21-15-64v-58l-63 4c-46 3-73 0-95-12l-32-17v-114c0-105 5-127 23-109 8 9 176 9 184 0 18-18 23 3 23 94v100h270v142l-130-7c-149-9-152-6-102 68 34 49 52 98 52 138v29h260v130h-580v-85zm274-107c-4-13-14-34-23-48l-16-24-6 29c-13 59-11 65 22 65 27 0 30-3 23-22zm-2209-70c-43-32-72-67-95-115-48-103-17-123 191-123 170 0 219 12 219 53 0 58-67 161-127 195-13 6-53 12-90 12-54-1-74-5-98-22z"/>
  <path d="M2079.628 576.4c-53-13-81-83-51-128 48-72 166-44 166 40 0 58-57 101-115 88zm5-97c0-2-3-11-6-20-9-23-34-20-34 4 0 13 7 20 20 20 11 0 20-2 20-4zm75-16c0-8-8-16-17-18-13-2-18 3-18 18s5 20 18 18c9-2 17-10 17-18zm155-180v-60h520v120h-520v-60zm237-165-37-42 42-29c24-16 49-35 57-42 12-11 21-7 57 29l43 42-37 29c-20 16-45 35-55 43-24 20-27 19-70-30z"/>
  <g fill="#BC6541">
    <path d="M3341.628 1085.4c-10-10-17-20-17-23 0-2 29-4 65-4 39 0 65 4 65 11 0 36-84 48-113 16zm-1612-42c-4-13 1-32 12-49 10-15 29-44 41-64 17-26 31-37 48-37 23 0 24 3 24 73 0 43-5 78-12 85s-33 12-59 12c-39 0-49-4-54-20zm1397-183c-94-95-172-176-172-180s4-7 10-7c17 0 352 339 345 350-3 5-7 10-8 10s-80-78-175-173zm348 158c0-10 33-49 73-87 39-37 76-72 80-76s45-46 90-94c46-49 89-88 96-88 20 0 11 13-84 112-156 161-255 252-255 233zm0-56c0-14 299-319 312-319 21 0-1 28-109 138-142 144-203 199-203 181zm-1153-5c-8-9-10-368-1-376 3-4 22 5 41 18 44 29 76 30 126 4 20-11 39-20 42-20s5 32 5 70c0 65 3 76 41 138 28 45 43 82 47 115l5 47h-135l6-37c16-92 17-99 7-77-5 12-13 42-16 68-11 68-33 61-38-11l-3-58-2 58c-3 88-17 68-20-31-5-118-12-118-12 1 0 58-4 97-10 97-5 0-10-17-10-37 0-21-7-60-15-88l-15-50 7 45c4 25 7 63 8 85 0 35-3 40-25 43-14 2-29 0-33-4zm140-181c-3-10-5-2-5 17s2 27 5 18c2-10 2-26 0-35zm-696 42c-56-86-54-109 12-113 69-4 77 6 77 99 0 76-1 79-23 79-17 0-34-16-66-65zm1507-137c-57-62-114-126-127-143-21-28-21-30-5-42 11-8 48-13 96-13h77l-1 33c-1 17-1 58 0 90 2 56 3 59 37 72 26 11 41 12 62 4 41-15 71-47 79-83 9-44 22-56 60-56 21 0 42-8 54-20 24-24 25-33 4-50-8-8-20-22-25-32-15-29 14-68 50-68 100 0 66 196-39 224-14 3-62 48-110 101-46 52-90 95-96 95s-58-51-116-112zm374-243c0-5-5-11-11-13s-11 4-11 13 5 15 11 13 11-8 11-13z"/>
    <path d="M3336.628 661.4c-20-20-14-27 28-34 46-8 69-34 45-54-12-10-18-10-30 0-8 7-15 18-15 25 0 11-20 25-36 25-2 0-4-31-4-70v-70h139c77 0 142 4 145 9 10 15-23 35-67 40-38 6-43 9-55 46-19 59-58 95-102 95-20 0-41-5-48-12zm-958-67c-18-11-39-30-48-42-22-32-21-101 2-122 22-20 58-22 65-4 3 7 6 5 6-5 1-10 6-18 11-18 6 0 10 8 11 18 0 14 2 14 8-3l8-20 5 20c4 14 6 15 7 4 1-12 8-15 25-12 86 17 79 144-11 188-40 19-51 19-89-4zm67-50c-8-5-11-16-6-30 5-16 2-21-10-21s-15 6-10 20c5 15 1 22-17 29-20 9-18 10 17 10 26 1 35-2 26-8z"/>
    <path d="M3379.628 603.4c-7-12 2-30 16-30 12 0 12 27 0 35-5 3-12 1-16-5zm-1643-12c-19-19-14-45 17-80 15-18 33-43 40-55 7-15 21-23 36-23 24 0 25 2 25 73 0 43-5 78-12 85s-30 12-53 12-46-5-53-12zm313-38c-18-20-17-20 56-20l74 1-24 19c-30 26-83 26-106 0zm-25-64c0-49 31-76 86-76 34 0 47 5 64 27 12 15 20 38 18 52-3 25-5 26-85 29l-83 3v-35zm64-5c4-5 3-17 0-26-10-24-48-15-52 13-3 18 1 22 22 22 14 0 27-4 30-9zm84-13c-4-28-42-37-52-13-9 24 1 35 30 35 21 0 25-4 22-22zm-378-69c0-6-16-33-35-59-53-72-44-100 32-100 53 0 63 16 63 104v66h-30c-16 0-30-5-30-11zm1635-14c-30-29-33-65-7-65 11 0 27 9 38 21 11 13 26 18 39 15 11-3 27-1 35 5 13 8 11 12-9 29-31 27-67 25-96-5zm-183 8c-15-6-42-56-42-78 0-23 23-18 50 10 15 16 30 23 44 20 12-3 28-1 36 4 12 8 12 13-4 30-18 20-55 26-84 14zm260-59c-12-8-28-14-34-12-15 5-49-23-42-34 3-4 23-8 44-8 30 0 43 6 59 26 12 15 21 31 21 35 0 14-23 10-48-7zm-202-9c-14-8-40-20-58-28l-33-14 30-13c36-15 85 0 101 31 22 39 6 49-40 24z"/>
  </g>
  <g fill="#487874">
    <path d="M231.628 1053.4c-26-18-56-43-67-57-27-35-60-127-60-170 0-30-9-44-51-87l-51-51 31-62c30-61 31-62 63-56l32 6-37-43c-20-24-37-49-37-55 0-17 68-126 98-158 15-16 54-43 87-59 53-27 66-30 125-25 70 5 163 41 193 74 18 20 17 20-33 11-61-11-144 3-209 34-68 32-145 116-167 180-38 112-16 261 50 336 48 55 140 110 207 123 36 7 59 17 59 25 0 18-84 54-140 61-39 4-52 0-93-27zm709-7c-14-29-13-34 27-126l41-96 47-6c50-7 89-35 89-63 0-10-14-34-30-54-26-31-29-41-20-58 6-11 14-20 18-20 17 0 82 116 82 147 0 39-44 79-98 89-51 9-72 30-72 73 0 35-28 102-55 130-11 11-16 9-29-16zm2293-137c-84-72-249-242-249-257 0-5 3-9 8-9 12 0 327 319 321 325-3 3-39-24-80-59zm241 53c0-14 299-319 313-319 20 0-3 28-110 138-144 146-203 199-203 181zm-299-163c-118-118-149-155-135-158 13-2 63 40 168 144 134 133 153 148 184 148s49-15 188-156c85-85 154-160 154-166s9-3 19 6c19 17 15 22-140 177l-160 159h-124l-154-154zm-1779 69c-9-20-8-32 5-61 24-49 10-68-52-72-26-2-57-9-69-17-11-7-36-16-53-20-18-4-35-10-38-15s22-23 55-41c60-32 100-70 100-94 0-7-20-29-44-49-25-20-47-46-51-59-3-12-11-38-16-58-10-30-8-42 11-79 21-42 23-43 37-24 9 12 12 30 8 49-22 107-19 116 52 147 31 13 45 27 50 46 11 45 6 63-27 91-23 19-31 33-29 51 3 20 12 26 49 33 25 5 53 17 63 26 24 24 25 73 1 107-10 15-24 35-30 45-10 18-12 17-22-6z"/>
    <path d="M404.628 842.4c-37-15-68-47-101-105-39-69-38-76 12-59 55 20 269 20 324 0 21-8 42-12 45-9 10 11-57 118-92 147-30 24-48 30-100 33-35 2-74-1-88-7zm170-39c12-6 19-14 17-17-3-2-15 0-26 7-12 6-47 15-79 20l-57 9 61-3c34-2 71-9 84-16zm3-47c3-5-39-8-94-8-54 0-99 3-99 8 0 9 187 9 193 0zm-135-26c54 3 115 0 137-5 32-7 13-10-95-10-139-1-170 2-170 19 0 6 6 7 16 1 9-5 59-7 112-5zm-172-86c-11-18 25-33 101-43 123-16 323 4 323 32 0 18-19 19-56 4-52-22-256-22-309 0-43 18-52 19-59 7z"/>
    <path d="M432.628 646.4c29-2 74-2 100 0s2 3-53 3-76-1-47-3z"/>
  </g>
</svg>